<svg version="1.1" id="Layer_1" xmlns="http://www.w3.org/2000/svg" x="0" y="0" viewBox="0 0 800 200" xml:space="preserve" fill="currentColor">
  <g>
    <path d="M795.31 180.78c1.96-.39 3.4-1.46 4.26-3.27.19-.4.29-.84.42-1.27v4.7h-4.7c0-.05.01-.1.02-.16zM.31 119.41c.04.88.22 1.77-.31 2.59v-2.53c.1-.02.2-.04.31-.06z"/>
    <path d="M795.31 180.78c-.02.05-.03.11-.02.16h-2.35c.01-.06.01-.13.02-.19l2.35.03zM0 124.89c.18.41.48.79.18 1.27H0v-1.27zM.3 127.81c-.1-.01-.2-.02-.3-.02v-1.08h.18l.12 1.1zM.18 126.7H0v-.54h.18v.54zM213.81 84.52c.72-.81 1.31-1.49 1.91-2.15 6.71-7.34 14.93-12.08 24.64-14.24 3.6-.8 7.26-1.17 10.95-1.05 10.55.34 20.02 3.72 28.23 10.38 8.26 6.69 13.64 15.25 16.15 25.58.79 3.26 1.22 6.57 1.22 9.93v36.07c0 6.87.02 13.74-.01 20.61-.02 3.98-1.81 7.03-5.26 8.98-6.39 3.61-14.18-.42-15.23-7.37-.11-.74-.15-1.5-.15-2.25-.01-18.29-.01-36.58 0-54.88 0-3.88-.7-7.61-2.35-11.13-3.24-6.91-8.47-11.65-15.74-14-11.68-3.78-24.33 1.08-30.53 11.84-1.98 3.45-3.14 7.16-3.36 11.14-.05.93-.11 1.86-.11 2.8-.01 18.11-.01 36.22 0 54.33 0 1.65-.18 3.25-.9 4.75-1.7 3.54-4.48 5.59-8.4 6.03-5.41.61-10.08-3.2-11.08-7.93-.2-.93-.28-1.91-.28-2.86-.02-18.08-.01-36.16-.01-54.24 0-.6.01-1.21-.01-1.81-.22-6.08-2.23-11.48-6.19-16.11-4.15-4.87-9.41-7.9-15.73-8.85-7.63-1.15-14.55.67-20.56 5.56-4.7 3.83-7.67 8.75-8.99 14.66-.45 2.01-.6 4.05-.6 6.1 0 18.26-.01 36.52.01 54.78 0 1.53-.15 3.01-.78 4.41-1.67 3.71-4.52 5.85-8.59 6.29-5.3.57-10.01-3.17-11.02-8.01-.19-.91-.26-1.85-.26-2.78-.02-13.59-.01-27.18-.01-40.77 0-4.73-.02-9.46.01-14.19.01-1.81-.05-3.63.21-5.41.37-2.54.86-5.09 1.54-7.57 2.24-8.14 6.47-15.14 12.55-21 6.54-6.3 14.31-10.35 23.21-12.18 3.25-.67 6.56-.99 9.88-.91 10.69.26 20.25 3.67 28.6 10.37 2.48 1.99 4.72 4.22 6.73 6.67.12.1.18.21.31.41zM538.81 140.54c0 9.64-.01 19.28.01 28.93.01 2.38-.63 4.52-2.09 6.4-2.02 2.6-4.69 3.95-8.01 4.07-4.94.17-9.31-3.38-10.29-8.07-.19-.9-.26-1.85-.26-2.78-.01-18.23-.02-36.46 0-54.69 0-2.51-.21-4.99-.9-7.41-2.43-8.39-7.72-14.23-15.81-17.51-3.79-1.54-7.76-2.01-11.8-1.6-6.97.7-12.76 3.76-17.33 9.06-3.12 3.62-5.07 7.82-5.83 12.53-.27 1.69-.38 3.42-.38 5.12-.03 18.17-.02 36.34-.01 54.51 0 1.3-.1 2.57-.51 3.83-1.32 4.01-5.25 6.96-9.66 7.02-4.85.07-9.22-3.38-10.21-8.07-.19-.9-.26-1.85-.26-2.78-.02-10.03-.01-20.07-.01-30.1 0-8.65-.09-17.3.03-25.94.14-10.46 3.49-19.85 9.96-28.08 6.14-7.81 14.01-13.13 23.54-15.99 3.45-1.03 6.97-1.61 10.56-1.81 8.25-.47 16.11 1.06 23.43 4.84 13.36 6.9 21.7 17.75 24.94 32.45.69 3.13.92 6.31.92 9.51-.04 8.84-.03 17.7-.03 26.56zM427.54 121.14c-.08-3.35-.55-6.65-1.28-9.92-2.16-9.65-6.61-18.12-13.24-25.44-5.61-6.19-12.28-10.9-19.97-14.17-6.1-2.6-12.48-4.02-19.08-4.36-2.98-.15-5.96-.05-8.94.29-3.66.42-7.25 1.15-10.76 2.28-10.51 3.39-19.32 9.34-26.36 17.84-5.93 7.16-9.86 15.3-11.73 24.41-.97 4.74-1.38 9.52-1.09 14.36.18 2.95.52 5.88 1.15 8.76 2.22 10.29 6.97 19.26 14.18 26.91 5.52 5.85 12.01 10.31 19.44 13.39 5.72 2.37 11.68 3.79 17.86 4.12 2.73.14 5.48 0 8.22-.11 2.68-.11 5.32-.6 7.94-1.21 7.62-1.77 14.58-4.96 20.87-9.6.14-.1.3-.19.47-.3.19.15.36.27.51.4 3.03 2.67 6.03 5.37 9.09 8.01 1.76 1.52 3.29 3.37 5.62 4.12h2.53c.16-.07.32-.15.48-.21 1.98-.69 3.37-1.99 3.93-4.03.2-.71.25-1.49.25-2.23.01-16.3.01-32.61.01-48.91 0-1.45-.06-2.92-.1-4.4zm-56.26 37.95c-19.18.07-35.62-15.49-35.63-35.67 0-9.79 3.56-18.24 10.48-25.15 6.95-6.94 15.44-10.43 25.29-10.44 19.21-.02 35.58 15.57 35.56 35.65-.02 20.12-16.39 35.66-35.7 35.61z"/>
    <path d="M112.72 127.32c0-3.69.2-7.4-.54-11.06-.25-1.23-.29-2.51-.54-3.74-2.12-10.64-6.98-19.88-14.44-27.74-5.33-5.62-11.59-9.95-18.71-13.03-6.12-2.64-12.51-4.12-19.16-4.48-3.55-.19-7.1-.03-10.64.46-5.93.82-11.59 2.52-16.94 5.17C21.85 77.79 14 84.95 8.26 94.37 3.58 102.06.89 110.42.3 119.42c.04.88.22 1.77-.31 2.59v2.89c.18.41.49.79.18 1.27v.54l.12 1.11c.6 7.63 2.64 14.85 6.2 21.63 5.22 9.91 12.72 17.62 22.47 23.14 5.88 3.33 12.18 5.46 18.85 6.52 4 .64 8.04.8 12.08.54 7.91-.51 15.41-2.58 22.46-6.24 2.54-1.32 4.98-2.81 7.29-4.52.21-.16.45-.3.72-.48.58.5 1.15.99 1.71 1.48 3.23 2.85 6.47 5.69 9.68 8.57 1.17 1.05 2.37 2.03 3.9 2.5h2.53c.21-.1.41-.22.63-.3 2.08-.79 3.38-2.26 3.81-4.44.12-.58.1-1.2.1-1.8.01-15.71.02-31.41 0-47.1zm-56.27 31.77c-19.62.09-35.72-16.04-35.69-35.7.03-19.54 16.07-35.62 35.73-35.58 19.66.04 35.64 16.1 35.61 35.71-.03 19.49-15.94 35.59-35.65 35.57zM799.84 118.42c-.13-1.2-.2-2.4-.37-3.59-.77-5.28-2.32-10.33-4.59-15.15-3.28-6.99-7.82-13.05-13.59-18.19-4.63-4.13-9.79-7.4-15.49-9.86-4.83-2.08-9.86-3.47-15.09-4.06-2.42-.27-4.86-.45-7.3-.46-2.62-.01-5.23.21-7.83.6-5.43.81-10.63 2.36-15.6 4.69-7.65 3.59-14.18 8.64-19.55 15.17-8.3 10.08-12.54 21.69-12.92 34.71-.07 2.31.06 4.62.3 6.93.42 3.93 1.2 7.79 2.45 11.54 3.49 10.54 9.53 19.35 18.16 26.34 9.76 7.9 20.97 12.02 33.5 12.54 4.05.17 8.07-.16 12.05-.91 8.14-1.53 15.61-4.66 22.38-9.45.46-.33.93-.65 1.4-.98.74.65 1.44 1.27 2.14 1.89 3.5 3.09 7 6.18 10.51 9.27.74.65 1.57 1.11 2.54 1.3l2.35.03c1.96-.39 3.4-1.46 4.26-3.27.19-.4.29-.84.42-1.27V119.1c-.02-.22-.1-.44-.13-.68zm-56.06 40.6c-9.9-.02-18.39-3.67-25.37-10.69-5.84-5.87-9.29-13.02-10.06-21.2-1.07-11.27 2.41-21.13 10.52-29.14 6.9-6.81 15.31-10.15 25-10.24 18.98-.1 35.65 15.33 35.63 35.68-.01 20-16.28 35.63-35.72 35.59zM669.5 29.83c0-.96-.09-1.94-.33-2.86-1.06-4.06-3.68-6.7-7.75-7.62-4.15-.93-7.68.37-10.39 3.68-1.61 1.97-2.24 4.29-2.24 6.81.01 16.18 0 32.36 0 48.55v1.24c-.31-.21-.44-.29-.56-.38a55.84 55.84 0 0 0-13.17-7.83c-6.16-2.61-12.59-4.08-19.28-4.35-2.92-.12-5.84-.15-8.74.33-1.63.27-3.29.4-4.91.72-10.37 2.05-19.41 6.73-27.17 13.88-5.89 5.42-10.4 11.84-13.57 19.2a55.207 55.207 0 0 0-4.32 17.36c-.22 2.61-.26 5.23-.1 7.85.21 3.32.63 6.59 1.42 9.81 3.21 13.1 10.16 23.81 20.92 31.92 11.06 8.34 23.59 12.04 37.44 11.24 3.17-.18 6.3-.62 9.37-1.37 12.2-2.97 22.38-9.25 30.39-18.9 8.61-10.38 12.94-22.41 12.97-35.88.07-31.14.03-62.27.02-93.4zm-55.45 128.99c-19.85.49-36.38-15.35-36.5-35.52.02-18.83 14.4-33.3 30.88-35.32 11.01-1.35 20.7 1.65 28.88 9.13 7.08 6.47 10.92 14.62 11.43 24.19 1.09 20.31-14.77 37.04-34.69 37.52z"/>
  </g>
</svg>